<svg xmlns="http://www.w3.org/2000/svg" viewBox="0 0 32 32">
  <rect width="32" height="32" rx="5" fill="#0b0b1e"/>
  <path fill-rule="evenodd"
    fill="#6090d0"
    d="M 14.003 4.675 L 17.997 4.675 L 17.476 7.629 L 20.875 9.037 L 22.596 6.580 L 25.420 9.404 L 22.963 11.125 L 24.371 14.524 L 27.325 14.003 L 27.325 17.997 L 24.371 17.476 L 22.963 20.875 L 25.420 22.596 L 22.596 25.420 L 20.875 22.963 L 17.476 24.371 L 17.997 27.325 L 14.003 27.325 L 14.524 24.371 L 11.125 22.963 L 9.404 25.420 L 6.580 22.596 L 9.037 20.875 L 7.629 17.476 L 4.675 17.997 L 4.675 14.003 L 7.629 14.524 L 9.037 11.125 L 6.580 9.404 L 9.404 6.580 L 11.125 9.037 L 14.524 7.629 Z M 19.800 16.000 A 3.8 3.8 0 1 0 12.200 16.000 A 3.8 3.8 0 1 0 19.800 16.000 Z"/>
</svg>
